<svg width="823" height="260" viewBox="0 0 823 260" fill="none" xmlns="http://www.w3.org/2000/svg">
<path d="M246.142 199V49.1818H264.284V182.906H333.926V199H246.142ZM339.076 199V86.6364H356.34V199H339.076ZM347.855 67.9091C344.489 67.9091 341.588 66.763 339.149 64.4709C336.76 62.1787 335.565 59.4233 335.565 56.2045C335.565 52.9858 336.76 50.2303 339.149 47.9382C341.588 45.6461 344.489 44.5 347.855 44.5C351.22 44.5 354.097 45.6461 356.487 47.9382C358.925 50.2303 360.144 52.9858 360.144 56.2045C360.144 59.4233 358.925 62.1787 356.487 64.4709C354.097 66.763 351.22 67.9091 347.855 67.9091ZM416.227 86.6364V101.267H357.997V86.6364H416.227ZM374.969 59.7159H392.233V166.812C392.233 171.689 392.94 175.347 394.355 177.786C395.818 180.175 397.671 181.785 399.914 182.614C402.206 183.394 404.62 183.784 407.156 183.784C409.058 183.784 410.619 183.687 411.838 183.491C413.057 183.248 414.033 183.053 414.764 182.906L418.276 198.415C417.105 198.854 415.471 199.293 413.374 199.732C411.277 200.219 408.619 200.463 405.401 200.463C400.524 200.463 395.744 199.415 391.063 197.317C386.43 195.22 382.577 192.026 379.504 187.734C376.481 183.443 374.969 178.029 374.969 171.494V59.7159ZM466.038 201.341C455.894 201.341 446.993 198.927 439.337 194.099C431.729 189.271 425.779 182.516 421.487 173.835C417.244 165.154 415.123 155.01 415.123 143.403C415.123 131.699 417.244 121.482 421.487 112.752C425.779 104.022 431.729 97.2436 439.337 92.4155C446.993 87.5874 455.894 85.1733 466.038 85.1733C476.181 85.1733 485.057 87.5874 492.665 92.4155C500.322 97.2436 506.272 104.022 510.515 112.752C514.806 121.482 516.952 131.699 516.952 143.403C516.952 155.01 514.806 165.154 510.515 173.835C506.272 182.516 500.322 189.271 492.665 194.099C485.057 198.927 476.181 201.341 466.038 201.341ZM466.038 185.832C473.743 185.832 480.083 183.857 485.057 179.907C490.032 175.957 493.714 170.763 496.104 164.325C498.493 157.888 499.688 150.914 499.688 143.403C499.688 135.893 498.493 128.895 496.104 122.408C493.714 115.922 490.032 110.679 485.057 106.68C480.083 102.681 473.743 100.682 466.038 100.682C458.332 100.682 451.992 102.681 447.018 106.68C442.043 110.679 438.361 115.922 435.971 122.408C433.582 128.895 432.387 135.893 432.387 143.403C432.387 150.914 433.582 157.888 435.971 164.325C438.361 170.763 442.043 175.957 447.018 179.907C451.992 183.857 458.332 185.832 466.038 185.832ZM593.518 153.06V86.6364H610.783V199H593.518V179.98H592.348C589.714 185.686 585.618 190.539 580.058 194.538C574.498 198.488 567.476 200.463 558.99 200.463C551.967 200.463 545.725 198.927 540.263 195.854C534.801 192.733 530.509 188.051 527.388 181.809C524.266 175.518 522.706 167.593 522.706 158.034V86.6364H539.97V156.864C539.97 165.057 542.262 171.592 546.846 176.469C551.48 181.346 557.381 183.784 564.55 183.784C568.841 183.784 573.206 182.687 577.644 180.492C582.131 178.298 585.886 174.933 588.91 170.397C591.982 165.862 593.518 160.082 593.518 153.06ZM667.451 201.341C656.917 201.341 647.846 198.854 640.238 193.879C632.63 188.905 626.778 182.053 622.681 173.323C618.584 164.594 616.536 154.62 616.536 143.403C616.536 131.991 618.633 121.921 622.827 113.191C627.07 104.413 632.971 97.5606 640.53 92.6349C648.138 87.6605 657.014 85.1733 667.158 85.1733C675.059 85.1733 682.179 86.6364 688.519 89.5625C694.859 92.4886 700.053 96.5852 704.101 101.852C708.148 107.119 710.66 113.264 711.635 120.287H694.371C693.055 115.166 690.128 110.631 685.593 106.68C681.106 102.681 675.059 100.682 667.451 100.682C660.721 100.682 654.82 102.437 649.748 105.949C644.724 109.411 640.799 114.313 637.97 120.653C635.19 126.944 633.8 134.332 633.8 142.818C633.8 151.499 635.166 159.058 637.897 165.496C640.677 171.933 644.578 176.932 649.601 180.492C654.673 184.052 660.623 185.832 667.451 185.832C671.938 185.832 676.01 185.052 679.667 183.491C683.325 181.931 686.422 179.688 688.958 176.761C691.494 173.835 693.298 170.324 694.371 166.227H711.635C710.66 172.86 708.246 178.834 704.393 184.15C700.589 189.417 695.542 193.611 689.251 196.732C683.008 199.805 675.742 201.341 667.451 201.341ZM733.538 131.406V199H716.273V49.1818H733.538V104.193H735.001C737.634 98.3897 741.584 93.781 746.852 90.3672C752.167 86.9046 759.239 85.1733 768.066 85.1733C775.723 85.1733 782.428 86.7095 788.183 89.782C793.938 92.8056 798.4 97.4631 801.57 103.754C804.789 109.997 806.398 117.946 806.398 127.602V199H789.134V128.773C789.134 119.848 786.818 112.947 782.185 108.07C777.6 103.145 771.236 100.682 763.092 100.682C757.434 100.682 752.362 101.877 747.876 104.266C743.438 106.656 739.926 110.143 737.342 114.727C734.806 119.312 733.538 124.871 733.538 131.406Z" fill="#898989"/>
<path d="M104 52L194.067 208H13.9334L104 52Z" fill="#5097D9"/>
<g filter="url(#filter0_d_43_10)">
<path d="M99.5 153L37.5792 46.5L161.421 46.5L99.5 153Z" fill="#D9D9D9"/>
</g>
<defs>
<filter id="filter0_d_43_10" x="37.5791" y="46.5" width="147.842" height="114.5" filterUnits="userSpaceOnUse" color-interpolation-filters="sRGB">
<feFlood flood-opacity="0" result="BackgroundImageFix"/>
<feColorMatrix in="SourceAlpha" type="matrix" values="0 0 0 0 0 0 0 0 0 0 0 0 0 0 0 0 0 0 127 0" result="hardAlpha"/>
<feOffset dx="20" dy="4"/>
<feGaussianBlur stdDeviation="2"/>
<feComposite in2="hardAlpha" operator="out"/>
<feColorMatrix type="matrix" values="0 0 0 0 0.779167 0 0 0 0 0.779167 0 0 0 0 0.779167 0 0 0 0.25 0"/>
<feBlend mode="normal" in2="BackgroundImageFix" result="effect1_dropShadow_43_10"/>
<feBlend mode="normal" in="SourceGraphic" in2="effect1_dropShadow_43_10" result="shape"/>
</filter>
</defs>
</svg>
